<svg width="166" height="56" viewBox="0 0 166 56" fill="none" xmlns="http://www.w3.org/2000/svg">
<path d="M55.27 23.196C56.243 24.186 56.243 25.79 55.27 26.779L45.083 37.141C44.9302 37.2978 44.7476 37.4224 44.5458 37.5075C44.3441 37.5926 44.1274 37.6364 43.9085 37.6364C43.6896 37.6364 43.4729 37.5926 43.2711 37.5075C43.0694 37.4224 42.8868 37.2978 42.734 37.141L30.85 25.052C30.383 24.577 30.12 23.932 30.12 23.26V1.69302C30.12 0.188019 31.909 -0.565981 32.955 0.499019L55.269 23.197L55.27 23.196ZM10.301 36.504C10.5302 36.7391 10.8041 36.926 11.1066 37.0535C11.4092 37.1811 11.7342 37.2468 12.0625 37.2468C12.3908 37.2468 12.7158 37.1811 13.0184 37.0535C13.3209 36.926 13.5948 36.7391 13.824 36.504L25.114 25.019C25.581 24.544 25.843 23.899 25.843 23.227V1.71302C25.843 0.208019 24.054 -0.545981 23.008 0.518019L0.729994 23.183C-0.243006 24.173 -0.243006 25.777 0.729994 26.767L10.301 36.504Z" fill="#3C52D9"/>
<path d="M25.7076 31.1439L16.6786 40.1729C15.4684 41.3832 15.4684 43.3453 16.6786 44.5556L25.8144 53.6914C27.0247 54.9016 28.9868 54.9016 30.1971 53.6914L39.2261 44.6624C40.4363 43.4521 40.4363 41.4899 39.2261 40.2797L30.0903 31.1439C28.8801 29.9337 26.9179 29.9337 25.7076 31.1439Z" fill="#2EF2FF"/>
<path d="M73.9567 20.6838V25.5385H81.9337V30.0513H73.9567V35.3162H82.9787V40H68V16H82.9787V20.6838H73.9567Z" fill="#EAEDFF"/>
<path d="M96.0073 16C98.585 16 100.838 16.5014 102.765 17.5043C104.693 18.5071 106.179 19.9202 107.224 21.7436C108.292 23.5442 108.826 25.6296 108.826 28C108.826 30.3476 108.292 32.433 107.224 34.2564C106.179 36.0798 104.681 37.4929 102.73 38.4957C100.803 39.4986 98.5618 40 96.0073 40H86.8459V16H96.0073ZM95.6241 34.9402C97.8767 34.9402 99.6301 34.3362 100.884 33.1282C102.138 31.9202 102.765 30.2108 102.765 28C102.765 25.7892 102.138 24.0684 100.884 22.8376C99.6301 21.6068 97.8767 20.9915 95.6241 20.9915H92.8026V34.9402H95.6241Z" fill="#EAEDFF"/>
<path d="M118.112 16V40H112.155V16H118.112Z" fill="#EAEDFF"/>
<path d="M140.02 16V20.6838H133.541V40H127.584V20.6838H121.105V16H140.02Z" fill="#EAEDFF"/>
<path d="M158.232 35.7607H149.105L147.642 40H141.407L150.255 16H157.152L166 40H159.695L158.232 35.7607ZM156.699 31.2479L153.669 22.4615L150.673 31.2479H156.699Z" fill="#EAEDFF"/>
</svg>
